<?xml version="1.0" standalone="no"?><!DOCTYPE svg PUBLIC "-//W3C//DTD SVG 1.1//EN" "http://www.w3.org/Graphics/SVG/1.1/DTD/svg11.dtd"><svg t="1752466535805" class="icon" viewBox="0 0 1024 1024" version="1.1" xmlns="http://www.w3.org/2000/svg" p-id="3581" xmlns:xlink="http://www.w3.org/1999/xlink" width="32" height="32"><path d="M257.514214 348.933873A72.800212 72.800212 0 1 0 184.304437 276.543227a72.800212 72.800212 0 0 0 73.209777 72.390646z m0-110.5826A37.782388 37.782388 0 1 1 219.834217 276.543227a37.782388 37.782388 0 0 1 37.679997-38.191954z" fill="#1296db" p-id="3582"></path><path d="M984.185247 0.086725H43.618795A40.956519 40.956519 0 0 0 0.000102 41.043244v941.99993a43.311519 43.311519 0 0 0 43.41391 40.956519h943.842974a38.499128 38.499128 0 0 0 36.656084-40.956519V39.507375C1023.91307 25.070202 1005.585028 0.086725 984.185247 0.086725z m-43.721084 908.927542A32.969998 32.969998 0 0 1 907.596557 942.086655H114.985529A34.403476 34.403476 0 0 1 81.91314 909.014267V116.198456a34.71065 34.71065 0 0 1 33.17478-33.072389L907.289383 81.999763a33.584345 33.584345 0 0 1 33.17478 33.072389z" fill="#1296db" p-id="3583"></path><path d="M808.891347 237.736925H430.043549a39.625432 39.625432 0 0 0-37.782389 40.956519 39.625432 39.625432 0 0 0 37.782389 40.956519h378.847798a39.625432 39.625432 0 0 0 37.782388-40.956519 39.625432 39.625432 0 0 0-37.782388-40.956519zM808.891347 469.653212H430.043549a40.956519 40.956519 0 0 0 0 81.913038h378.847798a40.956519 40.956519 0 0 0 0-81.913038zM808.891347 701.467108H430.043549a40.956519 40.956519 0 0 0 0 81.913037h378.847798a40.956519 40.956519 0 0 0 0-81.913037zM241.643563 511.531253l-36.553693-31.741302-27.748042 31.946084 67.0663 58.260648 4.709999-5.426739 94.609559-97.374123-30.410216-29.488693-71.673907 73.824125zM238.674215 742.116453l-36.553693-31.638911-27.748041 31.946085 67.066299 58.260648 4.607608-5.426739 94.71195-97.374123-30.410215-29.488694-71.673908 73.721734z" fill="#1296db" p-id="3584"></path></svg>