<?xml version="1.0" standalone="no"?><!DOCTYPE svg PUBLIC "-//W3C//DTD SVG 1.1//EN" "http://www.w3.org/Graphics/SVG/1.1/DTD/svg11.dtd"><svg t="1752466459909" class="icon" viewBox="0 0 1024 1024" version="1.1" xmlns="http://www.w3.org/2000/svg" p-id="3327" xmlns:xlink="http://www.w3.org/1999/xlink" width="32" height="32"><path d="M785.066667 56.888889H238.933333A182.044444 182.044444 0 0 0 56.888889 238.933333v546.133334A182.044444 182.044444 0 0 0 238.933333 967.111111h546.133334a182.044444 182.044444 0 0 0 182.044444-182.044444V238.933333A182.044444 182.044444 0 0 0 785.066667 56.888889zM312.433778 758.215111H273.066667c-25.031111 0-45.511111-20.48-45.511111-45.511111 0-25.031111 20.48-45.511111 45.511111-45.511111h39.367111c25.031111 0 45.511111 20.48 45.511111 45.511111 0 25.031111-20.48 45.511111-45.511111 45.511111z m0-200.704H273.066667c-25.031111 0-45.511111-20.48-45.511111-45.511111 0-25.031111 20.48-45.511111 45.511111-45.511111h39.367111c25.031111 0 45.511111 20.48 45.511111 45.511111 0 25.031111-20.48 45.511111-45.511111 45.511111z m0-200.704H273.066667c-25.031111 0-45.511111-20.48-45.511111-45.511111 0-25.031111 20.48-45.511111 45.511111-45.511111h39.367111c25.031111 0 45.511111 20.48 45.511111 45.511111 0 25.031111-20.48 45.511111-45.511111 45.511111z m362.040889 401.408H445.098667c-25.031111 0-45.511111-20.48-45.511111-45.511111 0-25.031111 20.48-45.511111 45.511111-45.511111h229.376c25.031111 0 45.511111 20.48 45.511111 45.511111 0 25.031111-20.48 45.511111-45.511111 45.511111zM750.933333 557.511111H445.098667c-25.031111 0-45.511111-20.48-45.511111-45.511111 0-25.031111 20.48-45.511111 45.511111-45.511111H750.933333c25.031111 0 45.511111 20.48 45.511111 45.511111 0 25.031111-20.48 45.511111-45.511111 45.511111z m0-200.704H445.098667c-25.031111 0-45.511111-20.48-45.511111-45.511111 0-25.031111 20.48-45.511111 45.511111-45.511111H750.933333c25.031111 0 45.511111 20.48 45.511111 45.511111 0 25.031111-20.48 45.511111-45.511111 45.511111z" fill="#ffffff" p-id="3328"></path></svg>