<?xml version="1.0" standalone="no"?><!DOCTYPE svg PUBLIC "-//W3C//DTD SVG 1.1//EN" "http://www.w3.org/Graphics/SVG/1.1/DTD/svg11.dtd"><svg t="1752465886802" class="icon" viewBox="0 0 1024 1024" version="1.1" xmlns="http://www.w3.org/2000/svg" p-id="1834" xmlns:xlink="http://www.w3.org/1999/xlink" width="32" height="32"><path d="M138.666667 386.986667v212.842666h405.909333v-46.933333H185.6V433.92h615.594667v41.749333l46.933333 22.208V386.986667H138.666667z" fill="#ffffff" p-id="1835"></path><path d="M281.984 457.941333a37.12 37.12 0 0 0-36.906667 34.005334c0 19.84 15.616 35.434667 34.069334 36.864 18.453333 1.408 35.477333-15.594667 36.906666-34.026667 0-19.84-15.616-36.842667-34.069333-36.842667zM387.029333 457.941333c-14.186667 0-26.944 8.618667-32.64 21.546667a35.712 35.712 0 0 0 7.104 38.826667c9.92 10.069333 25.536 12.949333 38.272 8.64 12.778667-5.76 22.698667-18.709333 22.698667-33.066667-1.429333-20.138667-17.002667-35.946667-35.456-35.946667zM193.152 181.333333h601.792c2.773333 0 5.461333 1.109333 7.552 3.178667 2.069333 2.048 2.986667 4.48 2.986667 6.741333v117.589334H181.333333V192.554667a12.672 12.672 0 0 1 3.861334-7.808 11.392 11.392 0 0 1 7.957333-3.413334zM138.666667 191.253333v160.256h709.482666V191.253333c0-28.8-24.064-52.586667-53.205333-52.586666H193.130667C164.032 138.666667 139.946667 162.453333 138.666667 191.253333z" fill="#ffffff" p-id="1836"></path><path d="M384.277333 280.554667c12.8 0 25.557333-5.674667 32.661334-17.024 7.104-11.349333 7.104-24.106667 1.429333-35.477334-5.696-11.349333-18.474667-18.432-31.253333-18.432-18.453333 0-34.090667 15.594667-35.498667 34.048-1.429333 19.861333 12.8 35.477333 32.661333 36.906667zM279.146667 280.554667a37.12 37.12 0 0 0 36.906666-34.048 37.12 37.12 0 0 0-34.069333-36.906667 37.12 37.12 0 0 0-36.906667 34.069333c0 19.861333 15.616 36.906667 34.069334 36.906667zM478.762667 635.306667H138.666667v175.274666c0 21.290667 17.728 37.568 38.016 37.568h302.08v-46.933333H185.6V682.24h293.12v-46.933333z" fill="#ffffff" p-id="1837"></path><path d="M386.986667 777.216c19.861333 0 35.477333-15.616 35.477333-35.477333s-15.616-35.477333-35.477333-35.477334-35.477333 15.594667-35.477334 35.477334c0 19.84 15.616 35.477333 35.477334 35.477333zM280.576 777.216c19.84 0 35.456-15.616 35.456-35.477333s-15.594667-35.477333-35.456-35.477334c-19.882667 0-35.477333 15.594667-35.477333 35.477334 0 19.84 15.594667 35.477333 35.456 35.477333zM825.813333 584.746667c0 64.746667-53.802667 117.461333-119.872 117.461333s-119.829333-52.714667-119.829333-117.482667c0-64.746667 53.76-117.461333 119.829333-117.461333s119.850667 52.693333 119.850667 117.461333zM514.218667 861.717333c0-81.728 62.293333-138.026667 145.770666-138.026666h100.906667c83.456 0 145.770667 56.32 145.770667 138.026666v8.810667c0 42.709333-70.122667 42.709333-151.338667 42.709333h-89.813333c-84.522667 0-151.296 0-151.296-42.709333v-8.810667z" fill="#ffffff" p-id="1838"></path></svg>