<?xml version="1.0" standalone="no"?><!DOCTYPE svg PUBLIC "-//W3C//DTD SVG 1.1//EN" "http://www.w3.org/Graphics/SVG/1.1/DTD/svg11.dtd"><svg t="1752466625176" class="icon" viewBox="0 0 1198 1024" version="1.1" xmlns="http://www.w3.org/2000/svg" p-id="3825" xmlns:xlink="http://www.w3.org/1999/xlink" width="37.4375" height="32"><path d="M1198.683659 56.709889v-5.865988c0-22.161957-14.339972-41.06492-34.545933-47.582907V0.653999h-6.517987c-3.259994-0.651999-6.517987-0.651999-9.776981-0.651999H51.492899c-3.258994 0-6.517987 0.651999-9.77698 0.651999h-5.21399v1.302997C16.294968 8.475983 1.303997 27.377947 1.303997 50.191902v5.865989c0 22.813955 14.990971 41.715919 35.197932 48.233905v594.453839C15.643969 705.263623 0 724.165586 0 746.979541v5.865989c0 28.027945 22.812955 50.841901 50.841901 50.8419h494.725033V916.45021h-28.679944c-28.026945 0-50.839901 22.812955-50.8399 50.840901v5.865988c0 28.028945 22.812955 50.841901 50.8399 50.841901h164.909678c28.027945 0 50.840901-22.812955 50.840901-50.841901v-5.865988c0-28.027945-22.812955-50.840901-50.840901-50.840901h-28.679944V803.68743h494.074035c28.027945 0 50.840901-22.813955 50.840901-50.8419v-5.865989c0-22.161957-13.687973-40.411921-33.241935-47.581907V104.291796c19.553962-6.517987 33.893934-25.41995 33.893934-47.581907z m-141.442724 634.86576H143.39872V108.201789h913.842215v583.37286z" p-id="3826" fill="#ffffff"></path><path d="M331.121353 316.131383H869.518302c21.509958 0 38.456925-16.946967 38.456925-38.456925s-16.946967-38.456925-38.456925-38.456925H331.121353c-21.509958 0-38.456925 16.946967-38.456925 38.456925s17.598966 38.456925 38.456925 38.456925z m0 134.273737H869.518302c21.509958 0 38.456925-16.947967 38.456925-38.456925 0-21.509958-16.946967-38.457925-38.456925-38.457924H331.121353c-21.509958 0-38.456925 16.947967-38.456925 38.457924 0 20.857959 17.598966 38.456925 38.456925 38.456925z m0 133.620739H869.518302c21.509958 0 38.456925-16.946967 38.456925-38.456925s-16.946967-38.456925-38.456925-38.456924H331.121353c-21.509958 0-38.456925 16.947967-38.456925 38.456924 0 21.509958 17.598966 38.456925 38.456925 38.456925z" p-id="3827" fill="#ffffff"></path></svg>