<?xml version="1.0" standalone="no"?><!DOCTYPE svg PUBLIC "-//W3C//DTD SVG 1.1//EN" "http://www.w3.org/Graphics/SVG/1.1/DTD/svg11.dtd"><svg t="1752466266120" class="icon" viewBox="0 0 1077 1024" version="1.1" xmlns="http://www.w3.org/2000/svg" p-id="2829" xmlns:xlink="http://www.w3.org/1999/xlink" width="33.65625" height="32"><path d="M1008.634691 260.854543h-194.666765L568.586481 12.940058a40.42084 40.42084 0 0 0-59.283898 0l-245.381446 247.914485H69.254372a42.84609 42.84609 0 0 0-42.307145 43.115562V980.884437c0 23.713559 19.024742 43.115563 42.307145 43.115563h939.380319c23.282404 0 42.307146-19.402003 42.307146-43.115563V303.970105c0-23.713559-19.024742-43.115563-42.307146-43.115562zM538.944532 103.48274l154.461503 157.371803H384.483029L538.944532 103.48274z m427.383014 836.441913H111.561518v-592.838985h854.766028v592.838985z" fill="#ffffff" p-id="2830"></path><path d="M260.471892 664.685681h610.839733a44.89408 44.89408 0 0 1 0 89.842053H260.471892a44.89408 44.89408 0 1 1 0-89.842053z m0-233.524666h425.011658a44.89408 44.89408 0 1 1 0 89.842053H260.471892a44.89408 44.89408 0 0 1 0-89.842053z" fill="#ffffff" p-id="2831"></path></svg>