<?xml version="1.0" standalone="no"?><!DOCTYPE svg PUBLIC "-//W3C//DTD SVG 1.1//EN" "http://www.w3.org/Graphics/SVG/1.1/DTD/svg11.dtd"><svg t="1752465637784" class="icon" viewBox="0 0 1024 1024" version="1.1" xmlns="http://www.w3.org/2000/svg" p-id="1532" xmlns:xlink="http://www.w3.org/1999/xlink" width="32" height="32"><path d="M242.0736 302.9504a38.912 38.912 0 0 1 0-77.6704 38.912 38.912 0 0 1 0 77.6704m0-149.3504A110.592 110.592 0 0 0 131.584 264.1408a110.592 110.592 0 0 0 110.4896 110.4896 110.592 110.592 0 0 0 110.4896-110.4896A110.592 110.592 0 0 0 242.0736 153.6M417.536 299.9296h439.04a35.84 35.84 0 1 0 0-71.68H417.536a35.84 35.84 0 0 0 0 71.68M242.0736 551.2192a38.912 38.912 0 0 1 0-77.6704 38.912 38.912 0 0 1 0 77.6704m0-149.3504a110.592 110.592 0 0 0-110.4896 110.5408 110.592 110.592 0 0 0 110.4896 110.4896 110.592 110.592 0 0 0 110.4896-110.4896 110.592 110.592 0 0 0-110.4896-110.592M856.576 476.5184H417.536a35.84 35.84 0 1 0 0 71.68h439.04a35.84 35.84 0 1 0 0-71.68M242.0736 799.488a38.912 38.912 0 1 1 38.8608-38.8608 38.912 38.912 0 0 1-38.8608 38.8608m0-149.3504a110.592 110.592 0 0 0-110.4896 110.4896 110.592 110.592 0 0 0 110.4896 110.5408 110.592 110.592 0 0 0 110.4896-110.592 110.592 110.592 0 0 0-110.4896-110.4384M856.576 724.7872H417.536a35.84 35.84 0 1 0 0 71.68h439.04a35.84 35.84 0 0 0 0-71.68" fill="#ffffff" p-id="1533"></path></svg>