<?xml version="1.0" standalone="no"?><!DOCTYPE svg PUBLIC "-//W3C//DTD SVG 1.1//EN" "http://www.w3.org/Graphics/SVG/1.1/DTD/svg11.dtd"><svg t="1752466325716" class="icon" viewBox="0 0 1024 1024" version="1.1" xmlns="http://www.w3.org/2000/svg" p-id="3084" xmlns:xlink="http://www.w3.org/1999/xlink" width="32" height="32"><path d="M285.511111 442.755556h21.422222c3.911111 0 7.2-3.2 7.2-7.2v-21.422223c0-3.911111-3.2-7.2-7.2-7.2h-21.422222c-3.911111 0-7.2 3.2-7.2 7.2V435.555556c0 4 3.2 7.2 7.2 7.2zM285.511111 296.088889h21.422222c3.911111 0 7.2-3.2 7.2-7.2v-21.422222c0-3.911111-3.2-7.2-7.2-7.2h-21.422222c-3.911111 0-7.2 3.2-7.2 7.2V288.888889c0 4 3.2 7.2 7.2 7.2zM285.511111 585.422222h21.422222c3.911111 0 7.2-3.2 7.2-7.2v-21.422222c0-3.911111-3.2-7.2-7.2-7.2h-21.422222c-3.911111 0-7.2 3.2-7.2 7.2v21.422222c0 4 3.2 7.2 7.2 7.2z" p-id="3085" fill="#ffffff"></path><path d="M856.977778 128h-688.888889c-21.244444 0-38.488889 17.244444-38.488889 38.488889v512.888889c0 21.244444 17.244444 38.488889 38.488889 38.488889h316.711111c5.155556 0 9.333333 4.177778 9.333333 9.333333v140.444444c0 5.155556-4.177778 9.333333-9.333333 9.333334H269.866667c-5.155556 0-9.333333 4.177778-9.333334 9.333333v16.888889c0 5.155556 4.177778 9.333333 9.333334 9.333333h490.666666c5.155556 0 9.333333-4.177778 9.333334-9.333333v-16.888889c0-5.155556-4.177778-9.333333-9.333334-9.333333H539.111111c-5.155556 0-9.333333-4.177778-9.333333-9.333334V727.111111c0-5.155556 4.177778-9.333333 9.333333-9.333333h317.955556c21.244444 0 38.488889-17.244444 38.488889-38.488889v-512.888889c-0.088889-21.155556-17.244444-38.4-38.577778-38.4zM249.955556 371.466667h92.533333c3.911111 0 7.2 3.2 7.2 7.2v92.533333c0 3.911111-3.2 7.2-7.2 7.2H249.955556c-3.911111 0-7.2-3.2-7.2-7.2V378.577778c0-3.911111 3.2-7.111111 7.2-7.111111z m-7.2-46.933334V231.911111c0-3.911111 3.2-7.2 7.2-7.2h92.533333c3.911111 0 7.2 3.2 7.2 7.2V324.444444c0 3.911111-3.2 7.2-7.2 7.2H249.955556c-4 0-7.2-3.2-7.2-7.111111z m7.2 189.6h92.533333c3.911111 0 7.2 3.2 7.2 7.2v92.533334c0 3.911111-3.2 7.2-7.2 7.2H249.955556c-3.911111 0-7.2-3.2-7.2-7.2V521.244444c0-3.911111 3.2-7.111111 7.2-7.111111z m153.688888-90.488889H762.666667c3.911111 0 7.2 3.2 7.2 7.2v21.244445c0 3.911111-3.2 7.2-7.2 7.2H403.644444c-3.911111 0-7.2-3.2-7.2-7.2v-21.244445c0.088889-4 3.288889-7.2 7.2-7.2z m-7.111111-118.222222v-21.244444c0-3.911111 3.2-7.2 7.2-7.2H762.666667c3.911111 0 7.2 3.2 7.2 7.2v21.244444c0 3.911111-3.2 7.2-7.2 7.2H403.644444c-3.911111-0.088889-7.111111-3.288889-7.111111-7.2z m7.111111 259.288889H762.666667c3.911111 0 7.2 3.2 7.2 7.2v21.244445c0 3.911111-3.2 7.2-7.2 7.2H403.644444c-3.911111 0-7.2-3.2-7.2-7.2v-21.244445c0.088889-4 3.288889-7.2 7.2-7.2z" p-id="3086" fill="#ffffff"></path></svg>