<?xml version="1.0" standalone="no"?><!DOCTYPE svg PUBLIC "-//W3C//DTD SVG 1.1//EN" "http://www.w3.org/Graphics/SVG/1.1/DTD/svg11.dtd"><svg t="1752465974440" class="icon" viewBox="0 0 1036 1024" version="1.1" xmlns="http://www.w3.org/2000/svg" p-id="2091" xmlns:xlink="http://www.w3.org/1999/xlink" width="32.375" height="32"><path d="M900.846933 0h-121.856a97.774933 97.774933 0 0 1 1.979734 18.8928c0 47.786667-36.420267 94.907733-79.803734 94.907733h-20.309333a58.3168 58.3168 0 0 0 8.3456-28.7744 55.313067 55.313067 0 0 0-54.033067-56.814933H390.5536a55.330133 55.330133 0 0 0-53.981867 56.814933 57.429333 57.429333 0 0 0 8.430934 28.7744h-18.090667c-45.653333 0-82.158933-47.0528-82.158933-94.907733A101.717333 101.717333 0 0 1 246.7328 0H123.460267C24.354133 0 0 53.469867 0 130.6112v764.125867c0 82.909867 34.850133 129.245867 131.003733 129.245866h762.538667c96.085333 0 142.813867-36.369067 142.813867-129.211733V130.6112C1036.253867 53.504 992.546133 0 900.846933 0z m-656.213333 786.773333h-16.776533a45.021867 45.021867 0 0 1-38.997334-41.403733 35.84 35.84 0 0 1 36.1472-34.474667h15.2576a37.137067 37.137067 0 0 1 37.546667 34.440534c0 18.602667-13.4656 41.403733-33.024 41.403733z m2.167467-189.6448h-16.674134a36.130133 36.130133 0 0 1-31.982933-38.621866 38.2464 38.2464 0 0 1 36.027733-37.205334h15.2576a39.594667 39.594667 0 0 1 37.546667 37.205334 43.229867 43.229867 0 0 1-40.106667 38.587733z m0-205.943466h-16.674134a35.84 35.84 0 0 1-31.982933-38.161067 37.9904 37.9904 0 0 1 36.027733-36.795733h15.2576a39.389867 39.389867 0 0 1 37.546667 36.795733 43.025067 43.025067 0 0 1-40.106667 38.126933zM785.92 786.773333H358.7584a45.021867 45.021867 0 0 1-38.997333-41.403733 35.84 35.84 0 0 1 36.027733-34.440533h425.728a37.137067 37.137067 0 0 1 37.546667 34.440533c-0.136533 18.568533-13.5168 41.3696-33.0752 41.3696z m2.286933-189.678933H360.9088a36.130133 36.130133 0 0 1-31.982933-38.621867 38.212267 38.212267 0 0 1 36.027733-37.205333h425.728a39.594667 39.594667 0 0 1 37.546667 37.205333 43.264 43.264 0 0 1-40.021334 38.621867z m0-205.943467H360.9088a35.84 35.84 0 0 1-31.982933-38.161066 37.956267 37.956267 0 0 1 36.027733-36.795734h425.728a39.389867 39.389867 0 0 1 37.546667 36.795734 43.076267 43.076267 0 0 1-40.021334 38.161066z" fill="#ffffff" p-id="2092"></path></svg>