<?xml version="1.0" standalone="no"?><!DOCTYPE svg PUBLIC "-//W3C//DTD SVG 1.1//EN" "http://www.w3.org/Graphics/SVG/1.1/DTD/svg11.dtd"><svg t="1752466094333" class="icon" viewBox="0 0 1024 1024" version="1.1" xmlns="http://www.w3.org/2000/svg" p-id="2575" xmlns:xlink="http://www.w3.org/1999/xlink" width="32" height="32"><path d="M901.376 62.336c46.912 0 85.056 38.208 85.056 85.184V868.48a85.12 85.12 0 0 1-85.12 85.12H120.896a85.12 85.12 0 0 1-85.12-85.12V147.52c0-46.976 38.208-85.12 85.12-85.12z m-17.152 631.296H137.984v157.76h746.24v-157.76z m-95.232 27.2a51.2 51.2 0 0 1 0 102.272h-47.104a51.2 51.2 0 0 1 0-102.272z m95.232-285.952H137.984V591.36h746.24V434.88z m-95.232 27.072a51.2 51.2 0 0 1 0 102.272h-47.104a51.2 51.2 0 0 1 0-102.272z m95.232-297.344H137.984v168h746.24V164.608z m-95.232 38.592a51.2 51.2 0 0 1 0 102.272h-47.104a51.2 51.2 0 0 1 0-102.272z" fill="#ffffff" p-id="2576"></path></svg>