<?xml version="1.0" standalone="no"?><!DOCTYPE svg PUBLIC "-//W3C//DTD SVG 1.1//EN" "http://www.w3.org/Graphics/SVG/1.1/DTD/svg11.dtd"><svg t="1752466038108" class="icon" viewBox="0 0 1024 1024" version="1.1" xmlns="http://www.w3.org/2000/svg" p-id="2333" xmlns:xlink="http://www.w3.org/1999/xlink" width="32" height="32"><path d="M512 0C229.248 0 0 229.248 0 512c0 282.752 229.248 512 512 512 282.816 0 512-229.248 512-512C1024 229.248 794.816 0 512 0zM258.56 740.032c-21.568 0-39.104-17.472-39.104-39.104s17.536-39.104 39.104-39.104c21.632 0 39.168 17.472 39.168 39.104S280.192 740.032 258.56 740.032zM258.56 551.168C236.992 551.168 219.456 533.568 219.456 512c0-21.632 17.536-39.168 39.104-39.168 21.632 0 39.168 17.536 39.168 39.168C297.728 533.568 280.192 551.168 258.56 551.168zM258.56 362.176c-21.568 0-39.104-17.536-39.104-39.104 0-21.632 17.536-39.168 39.104-39.168 21.632 0 39.168 17.536 39.168 39.168C297.728 344.64 280.192 362.176 258.56 362.176zM804.544 703.488c0 20.096-16.448 36.544-36.544 36.544L391.104 740.032c-20.096 0-36.544-16.448-36.544-36.544l0-5.12c0-20.032 16.448-36.544 36.544-36.544L768 661.824c20.096 0 36.544 16.512 36.544 36.544L804.544 703.488zM804.544 514.56c0 20.096-16.448 36.608-36.544 36.608L391.104 551.168c-20.096 0-36.544-16.448-36.544-36.608L354.56 509.44c0-20.096 16.448-36.544 36.544-36.544L768 472.896c20.096 0 36.544 16.448 36.544 36.544L804.544 514.56zM804.544 325.568c0 20.096-16.448 36.608-36.544 36.608L391.104 362.176c-20.096 0-36.544-16.448-36.544-36.608l0-5.12c0-20.096 16.448-36.544 36.544-36.544L768 283.904c20.096 0 36.544 16.448 36.544 36.544L804.544 325.568z" p-id="2334" fill="#ffffff"></path></svg>